HIERARCHY
ROOT Pelvis
{
	OFFSET 0.000000 0.000000 0.000000
	CHANNELS 6 Xposition Yposition Zposition Xrotation Yrotation Zrotation
	JOINT LeftUpLeg_virtual
	{
		OFFSET 0.000000 0.000000 0.000000
		CHANNELS 3 Xrotation Yrotation Zrotation
		JOINT LeftUpLeg
		{
			OFFSET 18.735201 -5.666702 -4.541200
			CHANNELS 3 Xrotation Yrotation Zrotation
			JOINT LeftLeg
			{
				OFFSET -0.021200 -31.938179 0.493100
				CHANNELS 3 Xrotation Yrotation Zrotation
				JOINT LeftFoot
				{
					OFFSET 0.021200 -31.938179 -4.336299
					CHANNELS 3 Xrotation Yrotation Zrotation
					JOINT LeftToeBase
					{
						OFFSET 0.943001 -26.722000 15.023500
						CHANNELS 3 Xrotation Yrotation Zrotation
						End Site
						{
							OFFSET 0 0 0
						}
					}
				}
			}
		}
	}
	JOINT RightUpLeg_virtual
	{
		OFFSET 0.000000 0.000000 0.000000
		CHANNELS 3 Xrotation Yrotation Zrotation
		JOINT RightUpLeg
		{
			OFFSET -18.735201 -5.666702 -4.541200
			CHANNELS 3 Xrotation Yrotation Zrotation
			JOINT RightLeg
			{
				OFFSET 0.018946 -31.938133 0.493100
				CHANNELS 3 Xrotation Yrotation Zrotation
				JOINT RightFoot
				{
					OFFSET -0.018946 -31.938126 -4.336299
					CHANNELS 3 Xrotation Yrotation Zrotation
					JOINT RightToeBase
					{
						OFFSET -0.943001 -26.722004 15.023500
						CHANNELS 3 Xrotation Yrotation Zrotation
						End Site
						{
							OFFSET 0 0 0
						}
					}
				}
			}
		}
	}
	JOINT Hips_virtual
	{
		OFFSET 0.000000 0.000000 0.000000
		CHANNELS 3 Xrotation Yrotation Zrotation
		JOINT Hips
		{
			OFFSET -0.000000 -0.000000 -0.000000
			CHANNELS 3 Xrotation Yrotation Zrotation
			JOINT Spine
			{
				OFFSET 0.000000 10.199997 -0.299500
				CHANNELS 3 Xrotation Yrotation Zrotation
				JOINT Spine1
				{
					OFFSET 0.000000 11.900002 -1.516600
					CHANNELS 3 Xrotation Yrotation Zrotation
					JOINT Spine2
					{
						OFFSET 0.000000 13.600006 -2.842500
						CHANNELS 3 Xrotation Yrotation Zrotation
						JOINT Neck_virtual
						{
							OFFSET 0.000000 0.000000 0.000000
							CHANNELS 3 Xrotation Yrotation Zrotation
							JOINT Neck
							{
								OFFSET 0.000000 9.624100 -2.890100
								CHANNELS 3 Xrotation Yrotation Zrotation
								JOINT Head
								{
									OFFSET 0.000000 14.068802 -1.351900
									CHANNELS 3 Xrotation Yrotation Zrotation
									End Site
									{
										OFFSET 0 0 0
									}
								}
							}
						}
						JOINT LeftShoulder_virtual
						{
							OFFSET 0.000000 0.000000 0.000000
							CHANNELS 3 Xrotation Yrotation Zrotation
							JOINT LeftShoulder
							{
								OFFSET 15.263000 10.923401 -0.547700
								CHANNELS 3 Xrotation Yrotation Zrotation
								JOINT LeftArm
								{
									OFFSET 25.438599 -2.830597 -13.032500
									CHANNELS 3 Xrotation Yrotation Zrotation
									JOINT LeftForeArm
									{
										OFFSET 29.960503 0.000000 0.000000
										CHANNELS 3 Xrotation Yrotation Zrotation
										JOINT LeftHand
										{
											OFFSET 27.849251 0.000000 0.000000
											CHANNELS 3 Xrotation Yrotation Zrotation
											End Site
											{
												OFFSET 0 0 0
											}
										}
									}
								}
							}
						}
						JOINT RightShoulder_virtual
						{
							OFFSET 0.000000 0.000000 0.000000
							CHANNELS 3 Xrotation Yrotation Zrotation
							JOINT RightShoulder
							{
								OFFSET -15.263000 10.923401 -0.547700
								CHANNELS 3 Xrotation Yrotation Zrotation
								JOINT RightArm
								{
									OFFSET -25.438599 -2.830597 -13.032500
									CHANNELS 3 Xrotation Yrotation Zrotation
									JOINT RightForeArm
									{
										OFFSET -29.960503 0.000000 0.000000
										CHANNELS 3 Xrotation Yrotation Zrotation
										JOINT RightHand
										{
											OFFSET -27.849251 0.000000 0.000000
											CHANNELS 3 Xrotation Yrotation Zrotation
											End Site
											{
												OFFSET 0 0 0
											}
										}
									}
								}
							}
						}
					}
				}
			}
		}
	}
}
MOTION
Frames: 9
Frame Time: 0.03333333
0.241376 108.811363 2.886709 0.000000 0.000000 0.000000 -32.118104 -4.925488 2.458895 -78.626269 -0.065770 20.548178 42.755564 14.431129 -11.683022 -10.275792 18.648180 -12.515371 0.000000 0.000000 0.000000 -37.900778 4.296065 -1.002421 -75.931561 4.034384 -15.021664 46.274371 -18.828931 7.425816 -10.144079 -23.650761 8.673385 0.000000 0.000000 0.000000 -25.410493 -18.218468 -0.069048 -72.082483 6.270260 19.940063 2.908903 -0.037775 -1.429069 0.508619 0.082998 -0.877898 0.000000 0.000000 0.000000 1.882247 -0.196472 -2.870012 -1.748962 1.297781 -1.564253 0.000000 0.000000 0.000000 2.521706 -0.554168 0.811123 1.898920 -0.543377 -3.000528 8.217430 -32.930080 -49.946557 26.193866 -73.409330 17.363217 0.000000 0.000000 0.000000 1.793199 0.793763 -0.944873 0.906913 2.040229 7.052804 -13.601668 11.161675 72.037848 -164.898757 59.880248 171.148722 0.000000 0.000000 0.000000 
0.243900 108.809082 2.889881 0.000000 0.000000 0.000000 -32.124623 -4.910035 2.461013 -78.631877 -0.063166 20.547596 42.756755 14.428254 -11.681623 -10.274792 18.645032 -12.515183 0.000000 0.000000 0.000000 -37.901717 4.290906 -1.007053 -75.932354 4.034775 -15.024031 46.274890 -18.832116 7.427576 -10.144693 -23.654017 8.673463 0.000000 0.000000 0.000000 -25.413954 -18.225482 -0.070997 -72.081691 6.269268 19.936103 2.905889 -0.038388 -1.426715 0.507101 0.082734 -0.876733 0.000000 0.000000 0.000000 1.876645 -0.191886 -2.868119 -1.751398 1.300905 -1.563406 0.000000 0.000000 0.000000 2.517974 -0.555218 0.811028 1.896811 -0.547000 -3.001685 8.218715 -32.935080 -49.949798 26.199882 -73.412144 17.366000 0.000000 0.000000 0.000000 1.790598 0.794382 -0.943798 0.905965 2.043854 7.056646 -13.599175 11.157310 72.030663 -164.897856 59.892843 171.145225 0.000000 0.000000 0.000000 
0.246847 108.807053 2.892502 0.000000 0.000000 0.000000 -32.131467 -4.895285 2.463227 -78.637696 -0.060901 20.547046 42.759351 14.423736 -11.680698 -10.272450 18.640674 -12.516641 0.000000 0.000000 0.000000 -37.902697 4.286429 -1.011439 -75.933166 4.035289 -15.026259 46.276792 -18.835217 7.429663 -10.144186 -23.657345 8.673924 0.000000 0.000000 0.000000 -25.416946 -18.232944 -0.072910 -72.079068 6.267852 19.932276 2.902313 -0.038986 -1.424035 0.505216 0.082549 -0.875381 0.000000 0.000000 0.000000 1.867607 -0.186583 -2.866373 -1.755561 1.304524 -1.562590 0.000000 0.000000 0.000000 2.514018 -0.555815 0.810855 1.894591 -0.548701 -3.002574 8.220090 -32.941883 -49.950396 26.209306 -73.416126 17.372929 0.000000 0.000000 0.000000 1.787492 0.795030 -0.942597 0.904563 2.046734 7.061450 -13.595897 11.153256 72.021715 -164.898443 59.905267 171.142698 0.000000 0.000000 0.000000 
0.248976 108.805260 2.896017 0.000000 0.000000 0.000000 -32.138676 -4.904457 2.460623 -78.643884 -0.063772 20.545216 42.772895 14.409402 -11.682121 -10.263151 18.627942 -12.526193 0.000000 0.000000 0.000000 -37.902718 4.295184 -1.013276 -75.932613 4.039081 -15.027832 46.278783 -18.834615 7.430213 -10.142461 -23.657069 8.674987 0.000000 0.000000 0.000000 -25.419727 -18.240418 -0.074804 -72.075619 6.266609 19.928699 2.898792 -0.039385 -1.421268 0.503277 0.082513 -0.873965 0.000000 0.000000 0.000000 1.856198 -0.180703 -2.865011 -1.760934 1.308549 -1.561928 0.000000 0.000000 0.000000 2.510385 -0.555769 0.810562 1.892688 -0.547846 -3.003363 8.226613 -32.950970 -49.946363 26.224658 -73.419390 17.385482 0.000000 0.000000 0.000000 1.783994 0.795674 -0.941390 0.902782 2.048654 7.066713 -13.591850 11.150708 72.011600 -164.900834 59.916605 171.141796 0.000000 0.000000 0.000000 
0.251437 108.803268 2.899317 0.000000 0.000000 0.000000 -32.146777 -4.900734 2.461074 -78.650871 -0.064294 20.544352 42.783164 14.399664 -11.682401 -10.255219 18.619297 -12.531885 0.000000 0.000000 0.000000 -37.904087 4.291583 -1.017103 -75.933802 4.039697 -15.029731 46.284432 -18.837334 7.432795 -10.138780 -23.660354 8.675996 0.000000 0.000000 0.000000 -25.422138 -18.247250 -0.076617 -72.071036 6.266982 19.925723 2.894783 -0.039520 -1.418426 0.500963 0.082681 -0.872474 0.000000 0.000000 0.000000 1.842892 -0.174477 -2.864329 -1.767278 1.312839 -1.561596 0.000000 0.000000 0.000000 2.506810 -0.555069 0.810020 1.890855 -0.544337 -3.004699 8.235220 -32.960635 -49.939577 26.241588 -73.421679 17.399743 0.000000 0.000000 0.000000 1.780267 0.796293 -0.940093 0.900770 2.049731 7.072614 -13.587157 11.150441 72.001696 -164.904577 59.926058 171.142657 0.000000 0.000000 0.000000 
0.254412 108.801598 2.902657 0.000000 0.000000 0.000000 -32.153809 -4.882450 2.465640 -78.656670 -0.062146 20.545018 42.788181 14.395969 -11.680283 -10.249612 18.615701 -12.531417 0.000000 0.000000 0.000000 -37.905180 4.291506 -1.020252 -75.934594 4.041182 -15.031479 46.290634 -18.839099 7.435138 -10.134468 -23.662736 8.677326 0.000000 0.000000 0.000000 -25.424056 -18.253559 -0.078221 -72.064404 6.267584 19.923472 2.889965 -0.039549 -1.415566 0.498117 0.082966 -0.870913 0.000000 0.000000 0.000000 1.827931 -0.168070 -2.863937 -1.774477 1.317278 -1.561367 0.000000 0.000000 0.000000 2.503405 -0.553653 0.809257 1.889148 -0.537914 -3.006338 8.244683 -32.969706 -49.930735 26.257453 -73.422211 17.413337 0.000000 0.000000 0.000000 1.776422 0.796845 -0.938799 0.898683 2.049644 7.078936 -13.581299 11.151675 71.991287 -164.909713 59.934288 171.145088 0.000000 0.000000 0.000000 
0.256724 108.799881 2.906620 0.000000 0.000000 0.000000 -32.160465 -4.883302 2.464970 -78.662421 -0.063280 20.543904 42.801616 14.384891 -11.680880 -10.238862 18.606110 -12.538244 0.000000 0.000000 0.000000 -37.904784 4.304397 -1.020482 -75.933576 4.045626 -15.032369 46.296112 -18.837766 7.435680 -10.129715 -23.661917 8.678495 0.000000 0.000000 0.000000 -25.425468 -18.258813 -0.079639 -72.056078 6.270984 19.921577 2.885251 -0.039170 -1.412889 0.495115 0.083489 -0.869367 0.000000 0.000000 0.000000 1.812199 -0.161551 -2.864004 -1.782109 1.321794 -1.561336 0.000000 0.000000 0.000000 2.500057 -0.551601 0.808258 1.887474 -0.529187 -3.008481 8.255226 -32.979930 -49.919708 26.275724 -73.422935 17.429693 0.000000 0.000000 0.000000 1.772700 0.797365 -0.937700 0.896685 2.048657 7.084749 -13.574232 11.155482 71.981574 -164.916570 59.939595 171.149965 0.000000 0.000000 0.000000 
0.258889 108.797974 2.910646 0.000000 0.000000 0.000000 -32.167872 -4.884623 2.464852 -78.668869 -0.064969 20.543208 42.815597 14.374903 -11.681476 -10.227598 18.597565 -12.544365 0.000000 0.000000 0.000000 -37.905631 4.310009 -1.021467 -75.934013 4.048068 -15.033152 46.303666 -18.838017 7.437693 -10.123846 -23.662980 8.680340 0.000000 0.000000 0.000000 -25.426458 -18.262355 -0.080827 -72.047663 6.276809 19.921235 2.880629 -0.038239 -1.410312 0.491996 0.084345 -0.867791 0.000000 0.000000 0.000000 1.796070 -0.155103 -2.864417 -1.790007 1.326277 -1.561468 0.000000 0.000000 0.000000 2.496875 -0.549043 0.807184 1.885887 -0.518706 -3.010567 8.267596 -32.991255 -49.905720 26.297693 -73.423926 17.450097 0.000000 0.000000 0.000000 1.768994 0.797886 -0.936834 0.894645 2.046898 7.089790 -13.567101 11.161490 71.972886 -164.924862 59.941440 171.156782 0.000000 0.000000 0.000000 
0.262035 108.796585 2.914312 0.000000 0.000000 0.000000 -32.173869 -4.879282 2.466816 -78.673971 -0.065373 20.543447 42.826656 14.368392 -11.681139 -10.217645 18.592074 -12.547524 0.000000 0.000000 0.000000 -37.906669 4.308253 -1.023439 -75.934956 4.048461 -15.034076 46.312245 -18.840617 7.440563 -10.117666 -23.666358 8.681513 0.000000 0.000000 0.000000 -25.426808 -18.264220 -0.081611 -72.037418 6.286228 19.921941 2.875756 -0.036927 -1.408030 0.488533 0.085449 -0.866274 0.000000 0.000000 0.000000 1.779856 -0.148966 -2.865212 -1.797988 1.330554 -1.561751 0.000000 0.000000 0.000000 2.493805 -0.546063 0.805878 1.884332 -0.506754 -3.013177 8.279301 -33.002965 -49.890516 26.320897 -73.425374 17.472391 0.000000 0.000000 0.000000 1.765487 0.798429 -0.936375 0.892732 2.044643 7.093576 -13.559743 11.168993 71.964799 -164.934042 59.941105 171.164882 0.000000 0.000000 0.000000 
